<?xml version="1.0" encoding="utf-8"?>
<!-- Generator: Adobe Illustrator 27.8.1, SVG Export Plug-In . SVG Version: 6.00 Build 0)  -->
<svg version="1.1" id="design_00000026847558158089852580000000473789159280031919_"
	 xmlns="http://www.w3.org/2000/svg" xmlns:xlink="http://www.w3.org/1999/xlink" x="0px" y="0px" viewBox="0 0 183.6 179.1"
	 style="enable-background:new 0 0 183.6 179.1;" xml:space="preserve">
<style type="text/css">
	.st0{fill:url(#SVGID_1_);}
	.st1{fill:url(#SVGID_00000044856553499293700020000001532857305405316516_);}
	.st2{fill:url(#SVGID_00000082347366842655781290000017259523931942952883_);}
	.st3{fill:url(#SVGID_00000042701120246394989840000006697116831516745635_);}
	.st4{fill:#A4E9D7;}
</style>
<linearGradient id="SVGID_1_" gradientUnits="userSpaceOnUse" x1="9.42" y1="-504.1474" x2="79.7836" y2="-623.0566" gradientTransform="matrix(1 0 0 -1 0 -482.1102)">
	<stop  offset="0" style="stop-color:#7BC9CD"/>
	<stop  offset="1" style="stop-color:#4997B0"/>
</linearGradient>
<polygon class="st0" points="87,127 62,83.6 41,83.6 27.4,11.1 12.1,11.1 29.8,97.8 58.5,98.4 "/>
<linearGradient id="SVGID_00000179630523215194567710000005846077288162289798_" gradientUnits="userSpaceOnUse" x1="123.8651" y1="-553.8102" x2="151.1795" y2="-599.9694" gradientTransform="matrix(1 0 0 -1 0 -482.1102)">
	<stop  offset="0" style="stop-color:#7BC9CD"/>
	<stop  offset="1" style="stop-color:#4997B0"/>
</linearGradient>
<polygon style="fill:url(#SVGID_00000179630523215194567710000005846077288162289798_);" points="94.8,85.3 96.2,98.1 178.2,98.1 
	175.2,85.3 "/>
<linearGradient id="SVGID_00000016794005236251251240000017916771955990870698_" gradientUnits="userSpaceOnUse" x1="29.3" y1="-544.1102" x2="178.2" y2="-544.1102" gradientTransform="matrix(1 0 0 -1 0 -482.1102)">
	<stop  offset="0" style="stop-color:#A9EDD7"/>
	<stop  offset="5.860436e-02" style="stop-color:#A4E9D6"/>
	<stop  offset="1" style="stop-color:#50A7C2"/>
</linearGradient>
<path style="fill:url(#SVGID_00000016794005236251251240000017916771955990870698_);" d="M178.2,79l-6.5-27L148,0H29.3l15.5,79h20.5
	l27.4,45l-3.3-45H178.2z M115,34.3c3,0,5.5,2.4,5.5,5.5s-2.4,5.5-5.5,5.5s-5.5-2.4-5.5-5.5S112,34.3,115,34.3z M61.4,45.2
	c-3,0-5.5-2.4-5.5-5.5s2.4-5.5,5.5-5.5c3,0,5.5,2.4,5.5,5.5S64.4,45.2,61.4,45.2z M82.9,39.7c0-3,2.4-5.5,5.5-5.5
	c3,0,5.5,2.4,5.5,5.5s-2.4,5.5-5.5,5.5C85.4,45.2,82.9,42.7,82.9,39.7z"/>
<linearGradient id="SVGID_00000108303453173417381280000004482859846349958835_" gradientUnits="userSpaceOnUse" x1="167.1074" y1="-508.1602" x2="141.4618" y2="-508.1602" gradientTransform="matrix(1 0 0 -1 0 -482.1102)">
	<stop  offset="0" style="stop-color:#ACF0D8"/>
	<stop  offset="0.3428" style="stop-color:#A7ECD7"/>
	<stop  offset="0.756" style="stop-color:#98E0D3"/>
	<stop  offset="1" style="stop-color:#8CD6D0"/>
</linearGradient>
<polygon style="fill:url(#SVGID_00000108303453173417381280000004482859846349958835_);" points="171.7,52.1 148,0 138.8,52 "/>
<g>
	<path class="st4" d="M21.6,148.1c-0.1-0.3-0.2-0.5-0.4-0.6c-0.2-0.1-0.4-0.2-0.8-0.4c-0.4-0.1-0.7-0.3-1-0.4l0-0.7h5.5
		c1.4,0,2.6,0.1,3.6,0.3c1,0.2,1.9,0.6,2.7,1.3c0.8,0.7,1.2,1.7,1.2,3.1c0,1.1-0.2,2-0.7,2.8c-0.5,0.8-1.1,1.3-1.8,1.7
		c-0.8,0.4-1.6,0.5-2.6,0.5c-0.2,0-0.4,0-0.8-0.1c-0.4-0.1-0.7-0.2-1-0.3c-0.3-0.1-0.5-0.3-0.5-0.4c0-0.2,0.2-0.2,0.5-0.2h0.2
		c0.9,0,1.6-0.1,2.2-0.3c0.6-0.2,1.1-0.5,1.4-1.1c0.3-0.5,0.5-1.3,0.5-2.4c0-0.9-0.2-1.7-0.7-2.3c-0.4-0.6-1-1-1.7-1.3
		c-0.7-0.3-1.5-0.4-2.3-0.4c-0.3,0-0.7,0-1.1,0.1v12.2c0,0.7,0,1.2,0.1,1.6c0.1,0.3,0.2,0.5,0.4,0.6c0.2,0.1,0.4,0.2,0.8,0.3
		c0.5,0.1,0.9,0.2,1.3,0.4l0,0.7h-7.2l0-0.7l0.4-0.1c0.4-0.1,0.8-0.3,1-0.4c0.3-0.1,0.5-0.3,0.7-0.6c0.2-0.3,0.3-0.6,0.3-1.1v-10.3
		C21.8,148.8,21.7,148.4,21.6,148.1z"/>
	<path class="st4" d="M45.8,146.8c1.2,0.7,2.1,1.7,2.8,3c0.7,1.3,1,2.8,1,4.6c0,1.7-0.4,3.2-1.1,4.5c-0.7,1.3-1.7,2.3-2.8,3
		c-1.2,0.7-2.5,1.1-3.9,1.1c-1.3,0-2.5-0.3-3.7-1c-1.1-0.7-2-1.7-2.7-3s-1-2.8-1-4.5c0-1.9,0.4-3.5,1.1-4.8c0.7-1.3,1.7-2.3,2.8-3
		c1.2-0.7,2.4-1,3.7-1C43.4,145.7,44.6,146.1,45.8,146.8z M44.7,161.2c0.7-0.5,1.3-1.3,1.7-2.4c0.4-1,0.6-2.2,0.6-3.6
		c0-1.6-0.2-3-0.7-4.3c-0.5-1.3-1.1-2.3-1.9-3.1c-0.8-0.8-1.8-1.1-2.8-1.1c-0.9,0-1.6,0.3-2.4,0.8s-1.3,1.3-1.7,2.3
		c-0.4,1-0.6,2.3-0.6,3.7c0,1.6,0.2,3.1,0.7,4.4c0.5,1.3,1.1,2.3,1.9,3.1s1.8,1.1,2.8,1.1C43.2,162,44,161.7,44.7,161.2z"/>
	<path class="st4" d="M53,157.5c0.1,0.1,0.1,0.3,0.2,0.4c0,0.2,0.1,0.4,0.2,0.6c0,0.1,0.1,0.2,0.1,0.3c0.3,1,0.7,1.7,1.5,2.3
		c0.7,0.5,1.5,0.8,2.5,0.8c0.5,0,1-0.1,1.4-0.3s0.8-0.5,1.1-0.9c0.3-0.4,0.4-0.9,0.4-1.5c0-0.5-0.2-1-0.5-1.4s-0.7-0.8-1.1-1.2
		c-0.5-0.3-1.1-0.8-1.9-1.3c-0.9-0.6-1.7-1.1-2.3-1.6s-1.1-1-1.5-1.6c-0.4-0.6-0.6-1.4-0.6-2.2c0-1,0.2-1.8,0.7-2.4
		c0.5-0.6,1.1-1.1,1.9-1.4c0.8-0.3,1.6-0.4,2.4-0.4c0.7,0,1.4,0.1,2.2,0.3c0.7,0.2,1.4,0.5,2.1,0.9l0.1,3.6h-0.7
		c-0.1-0.2-0.2-0.5-0.3-0.9l-0.1-0.4c-0.3-0.8-0.7-1.5-1.3-1.9c-0.6-0.4-1.3-0.6-2.1-0.6c-0.4,0-0.8,0.1-1.2,0.2s-0.8,0.4-1.1,0.7
		c-0.3,0.3-0.4,0.8-0.4,1.2c0,0.5,0.1,0.9,0.4,1.3c0.3,0.4,0.7,0.8,1.1,1.1c0.4,0.3,1,0.7,1.8,1.2c1,0.6,1.8,1.2,2.4,1.7
		c0.6,0.5,1.1,1.1,1.6,1.7s0.6,1.5,0.6,2.3c0,1.1-0.3,2-0.8,2.7s-1.2,1.2-2,1.6s-1.7,0.5-2.6,0.5c-0.8,0-1.7-0.1-2.6-0.4
		c-0.9-0.2-1.7-0.6-2.3-1v-4.1L53,157.5z"/>
	<path class="st4" d="M68.6,147c-0.7,0-1.2,0-1.6,0.1c-0.3,0-0.5,0.2-0.7,0.4c-0.2,0.2-0.4,0.4-0.5,0.7s-0.3,0.6-0.5,1
		c-0.2,0.5-0.4,0.8-0.6,1h-0.5l0.3-4.2c1.2,0.1,2.8,0.1,4.7,0.1l4.3,0h1.4c1.5,0,2.7,0,3.6-0.1l0.4,4.2h-0.5
		c-0.1-0.2-0.2-0.3-0.3-0.6c-0.1-0.2-0.2-0.4-0.2-0.5c-0.3-0.6-0.6-1.1-0.8-1.4c-0.3-0.3-0.6-0.5-0.9-0.6c-0.3,0-0.5-0.1-0.8-0.1
		c-0.3,0-0.6,0-1,0h-1.7v12.6c0,0.7,0.1,1.1,0.3,1.5c0.2,0.3,0.5,0.5,0.8,0.6c0.3,0.1,0.8,0.2,1.4,0.3c0,0.3,0,0.5,0,0.7h-7.3l0-0.7
		c0.1-0.1,0.3-0.1,0.6-0.2c0.4-0.2,0.8-0.3,1-0.4c0.3-0.1,0.5-0.3,0.6-0.6c0.2-0.3,0.2-0.7,0.2-1.1V147H68.6z"/>
	<path class="st4" d="M92.9,162.8c-0.1,0-0.2,0-0.4,0c-0.1,0-0.3,0-0.6-0.1c-0.3-0.1-0.5-0.1-0.6-0.1H79.9l0-0.6
		c0.2-0.1,0.4-0.2,0.6-0.3c0.2-0.1,0.4-0.1,0.6-0.2c0.3-0.1,0.5-0.1,0.6-0.2c0.1-0.1,0.2-0.3,0.3-0.6c0.1-0.3,0.1-0.8,0.1-1.5v-9.7
		c0-0.7,0-1.2-0.1-1.5c-0.1-0.3-0.2-0.5-0.4-0.7c-0.2-0.1-0.5-0.3-0.9-0.4c-0.1,0-0.2-0.1-0.4-0.1c-0.2-0.1-0.4-0.1-0.5-0.2l0-0.7
		h11.3c0.1,0,0.2,0,0.3,0c0.1,0,0.2,0,0.3,0c0.2,0,0.4-0.1,0.6-0.1c0.2,0,0.3,0,0.4,0.1v4l-0.6,0c-0.1-0.1-0.2-0.3-0.3-0.5
		c-0.1-0.2-0.2-0.4-0.3-0.7c-0.1-0.4-0.3-0.8-0.4-1c-0.1-0.2-0.4-0.4-0.6-0.5c-0.4-0.2-0.9-0.3-1.5-0.3s-1.3-0.1-2.1-0.1
		c-0.9,0-1.7,0-2.2,0.1c0,0.4,0,0.8,0,1.3v5.2h3.2c0.6,0,1-0.1,1.3-0.2c0.3-0.1,0.5-0.3,0.7-0.5c0.2-0.2,0.4-0.6,0.7-1.2l0.2-0.3
		h0.6v5.5l-0.6,0c-0.2-0.7-0.5-1.3-0.9-1.7s-0.9-0.6-1.5-0.6h-3.6v4.3c0,0.9,0.1,1.6,0.3,2c0.2,0.4,0.4,0.7,0.8,0.8
		c0.3,0.1,0.8,0.2,1.5,0.2h1.1c0.9,0,1.7-0.1,2.4-0.4c0.7-0.2,1.2-0.7,1.5-1.5l0.2-0.4c0.1-0.3,0.2-0.6,0.3-0.7
		c0.1-0.2,0.2-0.3,0.3-0.5h0.7L92.9,162.8z"/>
	<path class="st4" d="M101.7,155.1c-0.1-0.1-0.3-0.3-0.4-0.3c-0.2-0.1-0.4-0.1-0.7-0.1l-0.7-0.1v4.9c0,0.6,0,1.1,0.1,1.4
		c0.1,0.3,0.2,0.5,0.4,0.6s0.4,0.2,0.7,0.2c0.2,0,0.4,0.1,0.6,0.1s0.4,0.1,0.6,0.2l0,0.7h-7l0-0.7c0.2-0.1,0.4-0.2,0.6-0.3
		c0.2-0.1,0.4-0.1,0.6-0.1c0.3-0.1,0.5-0.1,0.7-0.2s0.3-0.3,0.3-0.6s0.1-0.9,0.1-1.6v-9.7c0-0.6,0-1.1-0.1-1.4
		c-0.1-0.3-0.2-0.5-0.4-0.6c-0.2-0.1-0.4-0.2-0.8-0.4c-0.4-0.1-0.7-0.3-1-0.4l0-0.7h5.1c1.4,0,2.6,0.1,3.6,0.2c1,0.1,2,0.5,2.8,1.2
		s1.2,1.6,1.2,2.9c0,0.8-0.2,1.5-0.6,2.1c-0.4,0.6-0.9,1-1.5,1.4c-0.6,0.3-1.3,0.6-2,0.7c0.1,0.1,0.5,0.8,1.3,2.1
		c0.6,1,1.1,1.8,1.5,2.4s0.8,1.2,1.2,1.8c0.2,0.3,0.5,0.5,0.7,0.7c0.2,0.2,0.4,0.3,0.7,0.4c0.3,0.1,0.6,0.2,1.1,0.2v0.7
		c-0.7,0.2-1.4,0.3-1.9,0.3c-0.8,0-1.5-0.3-2.1-0.8s-1.2-1.2-1.7-2c-0.5-0.8-1-1.7-1.6-2.9c-0.4-0.7-0.6-1.2-0.8-1.6
		C102,155.4,101.8,155.2,101.7,155.1z M100.4,153.7c0.9,0,1.8-0.1,2.4-0.2s1.3-0.4,1.8-0.9c0.5-0.5,0.7-1.2,0.7-2.2
		c0-1.1-0.3-1.8-0.8-2.3c-0.5-0.5-1.1-0.8-1.9-0.9s-1.6-0.2-2.6-0.2h-0.2v6.7H100.4z"/>
	<path class="st4" d="M116.1,160.8c0.1,0.3,0.2,0.5,0.4,0.6c0.2,0.1,0.4,0.2,0.8,0.3c0.4,0.1,0.8,0.2,1.2,0.3l0,0.7h-7.3V162
		c0.2-0.1,0.4-0.2,0.6-0.2s0.4-0.1,0.7-0.1c0.3-0.1,0.6-0.1,0.7-0.2c0.2-0.1,0.3-0.3,0.4-0.7s0.1-0.9,0.1-1.6v-9.6
		c0-0.7-0.1-1.2-0.2-1.5c-0.1-0.3-0.2-0.5-0.4-0.6c-0.2-0.1-0.4-0.2-0.7-0.2c-0.3-0.1-0.5-0.1-0.7-0.2c-0.2-0.1-0.4-0.1-0.5-0.3
		l0-0.7h7.3l0,0.7c-0.2,0.1-0.4,0.1-0.7,0.2c-0.4,0.1-0.7,0.2-1,0.4s-0.4,0.3-0.6,0.6c-0.2,0.3-0.2,0.6-0.2,1v10.5
		C116,160,116,160.5,116.1,160.8z"/>
	<path class="st4" d="M131.6,162.8c-0.1,0-0.3,0-0.5,0c-0.2,0-0.3,0-0.4,0c-0.3,0-0.5-0.1-0.8-0.1h-9.7l0-0.5l8.4-13.7l0.8-1.4h-4.4
		c-0.5,0-0.9,0-1.2,0.1s-0.6,0.2-0.9,0.4s-0.5,0.5-0.7,1l-0.2,0.5c-0.2,0.5-0.4,0.9-0.7,1.3c-0.2,0-0.4,0-0.6,0l0.3-4.2h0.4l10.9,0
		c0.1,0,0.1,0.2,0.1,0.4l0,0.3l-8.2,13.4l-0.2,0.3c-0.3,0.5-0.5,0.9-0.6,1c0.4,0.1,0.7,0.2,1,0.2h1.5c0.7,0,1.3,0,1.8,0
		c0.5,0,1-0.1,1.5-0.2c0.4-0.1,0.7-0.2,1-0.4c0.2-0.2,0.4-0.5,0.7-1c0.4-0.9,0.8-1.6,1.2-2l0.6,0l-0.7,4.7H131.6z"/>
	<path class="st4" d="M147.4,162.8c-0.1,0-0.2,0-0.4,0c-0.1,0-0.3,0-0.6-0.1c-0.3-0.1-0.5-0.1-0.6-0.1h-11.3l0-0.6
		c0.2-0.1,0.4-0.2,0.6-0.3c0.2-0.1,0.4-0.1,0.6-0.2c0.3-0.1,0.5-0.1,0.6-0.2c0.1-0.1,0.2-0.3,0.3-0.6c0.1-0.3,0.1-0.8,0.1-1.5v-9.7
		c0-0.7,0-1.2-0.1-1.5c-0.1-0.3-0.2-0.5-0.4-0.7c-0.2-0.1-0.5-0.3-0.9-0.4c-0.1,0-0.2-0.1-0.4-0.1c-0.2-0.1-0.4-0.1-0.5-0.2l0-0.7
		h11.3c0.1,0,0.2,0,0.3,0c0.1,0,0.2,0,0.3,0c0.2,0,0.4-0.1,0.6-0.1c0.2,0,0.3,0,0.4,0.1v4l-0.6,0c-0.1-0.1-0.2-0.3-0.3-0.5
		c-0.1-0.2-0.2-0.4-0.3-0.7c-0.1-0.4-0.3-0.8-0.4-1c-0.1-0.2-0.4-0.4-0.6-0.5c-0.4-0.2-0.9-0.3-1.5-0.3c-0.6,0-1.3-0.1-2.1-0.1
		c-0.9,0-1.7,0-2.2,0.1c0,0.4,0,0.8,0,1.3v5.2h3.2c0.6,0,1-0.1,1.3-0.2c0.3-0.1,0.5-0.3,0.7-0.5c0.2-0.2,0.4-0.6,0.7-1.2l0.2-0.3
		h0.6v5.5l-0.6,0c-0.2-0.7-0.5-1.3-0.9-1.7c-0.4-0.4-0.9-0.6-1.5-0.6h-3.6v4.3c0,0.9,0.1,1.6,0.3,2c0.2,0.4,0.4,0.7,0.8,0.8
		c0.3,0.1,0.8,0.2,1.5,0.2h1.1c0.9,0,1.7-0.1,2.4-0.4c0.7-0.2,1.2-0.7,1.5-1.5l0.2-0.4c0.1-0.3,0.2-0.6,0.3-0.7s0.2-0.3,0.3-0.5h0.7
		L147.4,162.8z"/>
	<path class="st4" d="M156.2,155.1c-0.1-0.1-0.3-0.3-0.4-0.3c-0.2-0.1-0.4-0.1-0.7-0.1l-0.7-0.1v4.9c0,0.6,0,1.1,0.1,1.4
		c0.1,0.3,0.2,0.5,0.4,0.6s0.4,0.2,0.7,0.2c0.2,0,0.4,0.1,0.6,0.1s0.4,0.1,0.6,0.2l0,0.7h-7l0-0.7c0.2-0.1,0.4-0.2,0.6-0.3
		c0.2-0.1,0.4-0.1,0.6-0.1c0.3-0.1,0.5-0.1,0.7-0.2s0.3-0.3,0.3-0.6s0.1-0.9,0.1-1.6v-9.7c0-0.6,0-1.1-0.1-1.4
		c-0.1-0.3-0.2-0.5-0.4-0.6c-0.2-0.1-0.4-0.2-0.8-0.4c-0.4-0.1-0.7-0.3-1-0.4l0-0.7h5.1c1.4,0,2.6,0.1,3.6,0.2c1,0.1,2,0.5,2.8,1.2
		s1.2,1.6,1.2,2.9c0,0.8-0.2,1.5-0.6,2.1c-0.4,0.6-0.9,1-1.5,1.4c-0.6,0.3-1.3,0.6-2,0.7c0.1,0.1,0.5,0.8,1.3,2.1
		c0.6,1,1.1,1.8,1.5,2.4s0.8,1.2,1.2,1.8c0.2,0.3,0.5,0.5,0.7,0.7c0.2,0.2,0.4,0.3,0.7,0.4c0.3,0.1,0.6,0.2,1.1,0.2v0.7
		c-0.7,0.2-1.4,0.3-1.9,0.3c-0.8,0-1.5-0.3-2.1-0.8s-1.2-1.2-1.7-2c-0.5-0.8-1-1.7-1.6-2.9c-0.4-0.7-0.6-1.2-0.8-1.6
		C156.5,155.4,156.3,155.2,156.2,155.1z M155,153.7c0.9,0,1.8-0.1,2.4-0.2s1.3-0.4,1.8-0.9c0.5-0.5,0.7-1.2,0.7-2.2
		c0-1.1-0.3-1.8-0.8-2.3c-0.5-0.5-1.1-0.8-1.9-0.9s-1.6-0.2-2.6-0.2h-0.2v6.7H155z"/>
</g>
</svg>
