<svg width="210" height="73" viewBox="0 0 210 73" fill="none" xmlns="http://www.w3.org/2000/svg">
<path d="M43.7549 72.3283L29.4575 47.6114H17.4477L9.66992 6.32159H0.919922L11.0425 55.6985L27.4559 56.0402L43.7549 72.3283Z" fill="url(#paint0_linear_62_8832)"/>
<path d="M48.2157 48.5796L49.0163 55.8694H95.9118L94.1961 48.5796H48.2157Z" fill="url(#paint1_linear_62_8832)"/>
<path d="M95.9117 44.9916L92.1944 29.6147L78.6405 0H10.7565L19.6209 44.9916H31.3448L47.0147 70.6198L45.1274 44.9916H95.9117ZM59.768 19.5343C61.4836 19.5343 62.9134 20.9012 62.9134 22.6667C62.9134 24.4322 61.5408 25.799 59.768 25.799C57.9951 25.799 56.6225 24.4322 56.6225 22.6667C56.6225 20.9012 58.0523 19.5343 59.768 19.5343ZM29.1144 25.742C27.3987 25.742 25.9689 24.3752 25.9689 22.6097C25.9689 20.8442 27.3415 19.4774 29.1144 19.4774C30.8301 19.4774 32.2598 20.8442 32.2598 22.6097C32.2598 24.3752 30.8301 25.742 29.1144 25.742ZM41.4101 22.6097C41.4101 20.9012 42.7827 19.4774 44.5555 19.4774C46.2712 19.4774 47.701 20.8442 47.701 22.6097C47.701 24.3752 46.3284 25.742 44.5555 25.742C42.8399 25.742 41.4101 24.3183 41.4101 22.6097Z" fill="url(#paint2_linear_62_8832)"/>
<path d="M92.1944 29.6717L78.6405 0L73.3791 29.6147L92.1944 29.6717Z" fill="url(#paint3_linear_62_8832)"/>
<path d="M111.512 31.6426C111.443 31.4372 111.375 31.3003 111.237 31.2319C111.1 31.1635 110.962 31.095 110.687 30.9581C110.412 30.8897 110.206 30.7528 110 30.6844V30.2053H113.78C114.742 30.2053 115.567 30.2737 116.254 30.4106C116.942 30.5475 117.56 30.8212 118.11 31.3003C118.66 31.7794 118.935 32.4639 118.935 33.4221C118.935 34.1749 118.797 34.7909 118.454 35.3384C118.11 35.886 117.698 36.2282 117.216 36.502C116.667 36.7757 116.117 36.8442 115.43 36.8442C115.292 36.8442 115.155 36.8442 114.88 36.7757C114.605 36.7073 114.399 36.6388 114.192 36.5704C113.986 36.502 113.849 36.3651 113.849 36.2966C113.849 36.1597 113.986 36.1597 114.192 36.1597H114.33C114.948 36.1597 115.43 36.0913 115.842 35.9544C116.254 35.8175 116.598 35.6122 116.804 35.2016C117.01 34.8593 117.148 34.3118 117.148 33.5589C117.148 32.943 117.01 32.3954 116.667 31.9848C116.392 31.5741 115.979 31.3003 115.498 31.095C115.017 30.8897 114.467 30.8212 113.918 30.8212C113.711 30.8212 113.436 30.8212 113.162 30.8897V39.2397C113.162 39.7187 113.162 40.061 113.23 40.3347C113.299 40.5401 113.368 40.6769 113.505 40.7454C113.643 40.8138 113.78 40.8823 114.055 40.9507C114.399 41.0192 114.674 41.0876 114.948 41.2245V41.7036H110V41.2245L110.275 41.156C110.55 41.0876 110.825 40.9507 110.962 40.8823C111.168 40.8138 111.306 40.6769 111.443 40.4716C111.581 40.2663 111.649 40.061 111.649 39.7187V32.6692C111.649 32.1217 111.581 31.8479 111.512 31.6426Z" fill="#A4E9D7"/>
<path d="M128.144 30.7529C128.969 31.232 129.588 31.9164 130.069 32.8061C130.55 33.6959 130.756 34.7225 130.756 35.9545C130.756 37.118 130.481 38.1446 130 39.0344C129.519 39.9241 128.832 40.6086 128.076 41.0877C127.251 41.5668 126.357 41.8405 125.395 41.8405C124.502 41.8405 123.677 41.6352 122.852 41.1561C122.096 40.677 121.478 39.9926 120.997 39.1028C120.515 38.2131 120.309 37.1865 120.309 36.0229C120.309 34.7225 120.584 33.6274 121.065 32.7377C121.546 31.8479 122.234 31.1635 122.99 30.6844C123.814 30.2053 124.639 30 125.533 30C126.495 30 127.32 30.2738 128.144 30.7529ZM127.388 40.6086C127.869 40.2664 128.282 39.7188 128.557 38.966C128.832 38.2815 128.969 37.4602 128.969 36.502C128.969 35.4069 128.832 34.4488 128.488 33.559C128.144 32.6693 127.732 31.9848 127.182 31.4373C126.632 30.8898 125.945 30.6844 125.258 30.6844C124.639 30.6844 124.158 30.8898 123.608 31.232C123.058 31.5742 122.715 32.1217 122.44 32.8061C122.165 33.4906 122.027 34.3803 122.027 35.3385C122.027 36.4336 122.165 37.4602 122.509 38.35C122.852 39.2397 123.265 39.9241 123.814 40.4717C124.364 41.0192 125.052 41.2246 125.739 41.2246C126.357 41.1561 126.907 40.9508 127.388 40.6086Z" fill="#A4E9D7"/>
<path d="M133.093 38.0762C133.162 38.1446 133.162 38.2815 133.23 38.35C133.23 38.4868 133.299 38.6237 133.368 38.7606C133.368 38.8291 133.436 38.8975 133.436 38.966C133.643 39.6504 133.918 40.1295 134.467 40.5401C134.948 40.8823 135.498 41.0877 136.186 41.0877C136.529 41.0877 136.873 41.0192 137.148 40.8823C137.423 40.7455 137.698 40.5401 137.904 40.2664C138.11 39.9926 138.179 39.6504 138.179 39.2397C138.179 38.8975 138.041 38.5553 137.835 38.2815C137.629 38.0078 137.354 37.734 137.079 37.4602C136.735 37.2549 136.323 36.9127 135.773 36.5705C135.155 36.1598 134.605 35.8176 134.192 35.4754C133.78 35.1332 133.436 34.791 133.162 34.3803C132.887 33.9697 132.749 33.4221 132.749 32.8746C132.749 32.1902 132.887 31.6426 133.23 31.232C133.574 30.8213 133.986 30.4791 134.536 30.2738C135.086 30.0684 135.636 30 136.186 30C136.667 30 137.148 30.0684 137.698 30.2053C138.179 30.3422 138.66 30.5475 139.141 30.8213L139.21 33.2852H138.729C138.66 33.1484 138.591 32.943 138.522 32.6693L138.454 32.3955C138.247 31.8479 137.973 31.3689 137.56 31.0951C137.148 30.8213 136.667 30.6844 136.117 30.6844C135.842 30.6844 135.567 30.7529 135.292 30.8213C135.017 30.8897 134.742 31.0951 134.536 31.3004C134.33 31.5057 134.261 31.8479 134.261 32.1217C134.261 32.4639 134.33 32.7377 134.536 33.0115C134.742 33.2852 135.017 33.559 135.292 33.7643C135.567 33.9697 135.979 34.2434 136.529 34.5856C137.216 34.9963 137.766 35.407 138.179 35.7492C138.591 36.0914 138.935 36.502 139.278 36.9127C139.622 37.3233 139.691 37.9393 139.691 38.4869C139.691 39.2397 139.485 39.8557 139.141 40.3348C138.797 40.8139 138.316 41.1561 137.766 41.4299C137.216 41.7036 136.598 41.7721 135.979 41.7721C135.43 41.7721 134.811 41.7036 134.192 41.4983C133.574 41.3614 133.024 41.0877 132.612 40.8139V38.0078L133.093 38.0762Z" fill="#A4E9D7"/>
<path d="M143.814 30.8897C143.333 30.8897 142.99 30.8897 142.715 30.9581C142.509 30.9581 142.371 31.095 142.234 31.2319C142.096 31.3688 141.959 31.5057 141.89 31.711C141.821 31.9163 141.684 32.1216 141.546 32.3954C141.409 32.7376 141.271 32.943 141.134 33.0798H140.79L140.997 30.2053C141.821 30.2737 142.921 30.2737 144.227 30.2737H147.182H148.144C149.175 30.2737 150 30.2737 150.619 30.2053L150.893 33.0798H150.55C150.481 32.943 150.412 32.8745 150.344 32.6692C150.275 32.5323 150.206 32.3954 150.206 32.327C150 31.9163 149.794 31.5741 149.656 31.3688C149.45 31.1635 149.244 31.0266 149.038 30.9581C148.832 30.9581 148.694 30.8897 148.488 30.8897C148.282 30.8897 148.076 30.8897 147.801 30.8897H146.632V39.5134C146.632 39.9925 146.701 40.2663 146.838 40.5401C146.976 40.7454 147.182 40.8823 147.388 40.9507C147.595 41.0192 147.938 41.0876 148.351 41.156C148.351 41.3614 148.351 41.4982 148.351 41.6351H143.333V41.156C143.402 41.0876 143.54 41.0876 143.746 41.0192C144.021 40.8823 144.296 40.8138 144.433 40.7454C144.639 40.6769 144.777 40.5401 144.845 40.3347C144.983 40.1294 144.983 39.8556 144.983 39.5819V30.8897H143.814Z" fill="#A4E9D7"/>
<path d="M160.515 41.7036C160.447 41.7036 160.378 41.7036 160.241 41.7036C160.172 41.7036 160.034 41.7036 159.828 41.6352C159.622 41.5667 159.485 41.5667 159.416 41.5667H151.581V41.1561C151.718 41.0876 151.856 41.0192 151.993 40.9508C152.131 40.8823 152.268 40.8823 152.405 40.8139C152.612 40.7454 152.749 40.7454 152.818 40.677C152.887 40.6085 152.955 40.4717 153.024 40.2663C153.093 40.061 153.093 39.7188 153.093 39.2397V32.6008C153.093 32.1217 153.093 31.7795 153.024 31.5742C152.955 31.3688 152.887 31.2319 152.749 31.0951C152.612 31.0266 152.405 30.8897 152.131 30.8213C152.062 30.8213 151.993 30.7528 151.856 30.7528C151.718 30.6844 151.581 30.6844 151.512 30.616V30.1369H159.278C159.347 30.1369 159.416 30.1369 159.485 30.1369C159.553 30.1369 159.622 30.1369 159.691 30.1369C159.828 30.1369 159.966 30.0684 160.103 30.0684C160.241 30.0684 160.309 30.0684 160.378 30.1369V32.8746H159.966C159.897 32.8061 159.828 32.6692 159.759 32.5323C159.691 32.3955 159.622 32.2586 159.553 32.0532C159.485 31.7795 159.347 31.5057 159.278 31.3688C159.21 31.2319 159.003 31.0951 158.866 31.0266C158.591 30.8897 158.247 30.8213 157.835 30.8213C157.423 30.8213 156.942 30.7528 156.392 30.7528C155.773 30.7528 155.223 30.7528 154.88 30.8213C154.88 31.095 154.88 31.3688 154.88 31.711V35.27H157.079C157.491 35.27 157.766 35.2016 157.973 35.1332C158.179 35.0647 158.316 34.9278 158.454 34.7909C158.591 34.6541 158.729 34.3803 158.935 33.9696L159.072 33.7643H159.485V37.5286H159.072C158.935 37.0495 158.729 36.6389 158.454 36.3651C158.179 36.0913 157.835 35.9545 157.423 35.9545H154.948V38.8975C154.948 39.5135 155.017 39.9926 155.155 40.2663C155.292 40.5401 155.43 40.7454 155.704 40.8139C155.911 40.8823 156.254 40.9508 156.735 40.9508H157.491C158.11 40.9508 158.66 40.8823 159.141 40.677C159.622 40.5401 159.966 40.1979 160.172 39.6504L160.309 39.3766C160.378 39.1712 160.447 38.9659 160.515 38.8975C160.584 38.7606 160.653 38.6922 160.722 38.5553H161.203L160.515 41.7036Z" fill="#A4E9D7"/>
<path d="M166.564 36.4335C166.495 36.3651 166.357 36.2282 166.289 36.2282C166.151 36.1597 166.014 36.1597 165.808 36.1597L165.326 36.0913V39.445C165.326 39.8556 165.326 40.1978 165.395 40.4032C165.464 40.6085 165.533 40.7454 165.67 40.8138C165.808 40.8823 165.945 40.9507 166.151 40.9507C166.289 40.9507 166.426 41.0192 166.564 41.0192C166.701 41.0192 166.838 41.0876 166.976 41.156V41.6351H162.165V41.156C162.302 41.0876 162.44 41.0192 162.577 40.9507C162.715 40.8823 162.852 40.8823 162.99 40.8823C163.196 40.8138 163.333 40.8138 163.471 40.7454C163.608 40.6769 163.677 40.5401 163.677 40.3347C163.677 40.1294 163.746 39.7187 163.746 39.2396V32.6007C163.746 32.1901 163.746 31.8479 163.677 31.6426C163.608 31.4372 163.54 31.3003 163.402 31.2319C163.265 31.1635 163.127 31.095 162.852 30.9581C162.577 30.8897 162.371 30.7528 162.165 30.6844V30.2053H165.67C166.632 30.2053 167.457 30.2737 168.144 30.3421C168.832 30.4106 169.519 30.6844 170.069 31.1635C170.619 31.6425 170.893 32.2585 170.893 33.1483C170.893 33.6958 170.756 34.1749 170.481 34.5856C170.206 34.9962 169.863 35.27 169.45 35.5438C169.038 35.7491 168.557 35.9544 168.076 36.0229C168.144 36.0913 168.419 36.5704 168.969 37.4602C169.381 38.1446 169.725 38.6921 170 39.1028C170.275 39.5134 170.55 39.9241 170.825 40.3347C170.962 40.5401 171.168 40.6769 171.306 40.8138C171.443 40.9507 171.581 41.0191 171.787 41.0876C171.993 41.156 172.199 41.2245 172.543 41.2245V41.7036C172.062 41.8405 171.581 41.9089 171.237 41.9089C170.687 41.9089 170.206 41.7036 169.794 41.3614C169.381 41.0192 168.969 40.5401 168.625 39.9925C168.282 39.445 167.938 38.829 167.526 38.0077C167.251 37.5286 167.113 37.1864 166.976 36.9126C166.77 36.6388 166.632 36.502 166.564 36.4335ZM165.67 35.4753C166.289 35.4753 166.907 35.4069 167.32 35.3384C167.732 35.27 168.213 35.0647 168.557 34.7225C168.9 34.3802 169.038 33.9011 169.038 33.2167C169.038 32.4639 168.832 31.9848 168.488 31.6426C168.144 31.3003 167.732 31.095 167.182 31.0266C166.632 30.9581 166.082 30.8897 165.395 30.8897H165.258V35.4753H165.67Z" fill="#A4E9D7"/>
<path d="M176.46 40.3348C176.529 40.5401 176.598 40.677 176.735 40.7454C176.873 40.8139 177.01 40.8823 177.285 40.9507C177.56 41.0192 177.835 41.0876 178.11 41.1561V41.6352H173.093V41.1561C173.23 41.0876 173.368 41.0192 173.505 41.0192C173.643 41.0192 173.78 40.9507 173.986 40.9507C174.192 40.8823 174.399 40.8823 174.467 40.8139C174.605 40.7454 174.674 40.6085 174.742 40.3348C174.811 40.061 174.811 39.7188 174.811 39.2397V32.6692C174.811 32.1901 174.742 31.8479 174.674 31.6426C174.605 31.4373 174.536 31.3004 174.399 31.2319C174.261 31.1635 174.124 31.095 173.918 31.095C173.711 31.0266 173.574 31.0266 173.436 30.9582C173.299 30.8897 173.162 30.8897 173.093 30.7528V30.2737H178.11V30.7528C177.973 30.8213 177.835 30.8213 177.629 30.8897C177.354 30.9582 177.148 31.0266 176.942 31.1635C176.735 31.3004 176.667 31.3688 176.529 31.5741C176.392 31.7795 176.392 31.9848 176.392 32.2586V39.445C176.392 39.7872 176.392 40.1294 176.46 40.3348Z" fill="#A4E9D7"/>
<path d="M187.113 41.7037C187.045 41.7037 186.907 41.7037 186.77 41.7037C186.632 41.7037 186.564 41.7037 186.495 41.7037C186.289 41.7037 186.151 41.6352 185.945 41.6352H179.278V41.293L185.052 31.9164L185.601 30.9582H182.577C182.234 30.9582 181.959 30.9582 181.753 31.0266C181.546 31.0951 181.34 31.1635 181.134 31.3004C180.928 31.4373 180.79 31.6426 180.653 31.9848L180.515 32.3271C180.378 32.6693 180.241 32.943 180.034 33.2168C179.897 33.2168 179.759 33.2168 179.622 33.2168L179.828 30.3422H180.103H187.594C187.663 30.3422 187.663 30.4791 187.663 30.616V30.8213L182.027 39.9926L181.89 40.1979C181.684 40.5401 181.546 40.8139 181.478 40.8824C181.753 40.9508 181.959 41.0192 182.165 41.0192H183.196C183.677 41.0192 184.089 41.0192 184.433 41.0192C184.777 41.0192 185.12 40.9508 185.464 40.8824C185.739 40.8139 185.945 40.7455 186.151 40.6086C186.289 40.4717 186.426 40.2664 186.632 39.9242C186.907 39.3082 187.182 38.8291 187.457 38.5553H187.869L187.388 41.7721H187.113V41.7037Z" fill="#A4E9D7"/>
<path d="M197.973 41.7036C197.904 41.7036 197.835 41.7036 197.698 41.7036C197.629 41.7036 197.491 41.7036 197.285 41.6352C197.079 41.5667 196.942 41.5667 196.873 41.5667H189.107V41.1561C189.244 41.0876 189.381 41.0192 189.519 40.9508C189.656 40.8823 189.794 40.8823 189.931 40.8139C190.137 40.7454 190.275 40.7454 190.344 40.677C190.412 40.6085 190.481 40.4717 190.55 40.2663C190.619 40.061 190.619 39.7188 190.619 39.2397V32.6008C190.619 32.1217 190.619 31.7795 190.55 31.5742C190.481 31.3688 190.412 31.2319 190.275 31.0951C190.137 31.0266 189.931 30.8897 189.656 30.8213C189.588 30.8213 189.519 30.7528 189.381 30.7528C189.244 30.6844 189.107 30.6844 189.038 30.616V30.1369H196.804C196.873 30.1369 196.942 30.1369 197.01 30.1369C197.079 30.1369 197.148 30.1369 197.216 30.1369C197.354 30.1369 197.491 30.0684 197.629 30.0684C197.766 30.0684 197.835 30.0684 197.904 30.1369V32.8746H197.491C197.423 32.8061 197.354 32.6692 197.285 32.5323C197.216 32.3955 197.148 32.2586 197.079 32.0532C197.01 31.7795 196.873 31.5057 196.804 31.3688C196.735 31.2319 196.529 31.0951 196.392 31.0266C196.117 30.8897 195.773 30.8213 195.361 30.8213C194.948 30.8213 194.467 30.7528 193.918 30.7528C193.299 30.7528 192.749 30.7528 192.405 30.8213C192.405 31.095 192.405 31.3688 192.405 31.711V35.27H194.605C195.017 35.27 195.292 35.2016 195.498 35.1332C195.704 35.0647 195.842 34.9278 195.979 34.7909C196.117 34.6541 196.254 34.3803 196.46 33.9696L196.598 33.7643H197.01V37.5286H196.598C196.46 37.0495 196.254 36.6389 195.979 36.3651C195.704 36.0913 195.361 35.9545 194.948 35.9545H192.474V38.8975C192.474 39.5135 192.543 39.9926 192.68 40.2663C192.818 40.5401 192.955 40.7454 193.23 40.8139C193.436 40.8823 193.78 40.9508 194.261 40.9508H195.017C195.636 40.9508 196.186 40.8823 196.667 40.677C197.148 40.5401 197.491 40.1979 197.698 39.6504L197.835 39.3766C197.904 39.1712 197.973 38.9659 198.041 38.8975C198.11 38.829 198.179 38.6922 198.247 38.5553H198.729L197.973 41.7036Z" fill="#A4E9D7"/>
<path d="M204.021 36.4335C203.952 36.3651 203.814 36.2282 203.746 36.2282C203.608 36.1597 203.471 36.1597 203.265 36.1597L202.784 36.0913V39.445C202.784 39.8556 202.784 40.1978 202.852 40.4032C202.921 40.6085 202.99 40.7454 203.127 40.8138C203.265 40.8823 203.402 40.9507 203.608 40.9507C203.746 40.9507 203.883 41.0192 204.021 41.0192C204.158 41.0192 204.296 41.0876 204.433 41.156V41.6351H199.622V41.156C199.759 41.0876 199.897 41.0192 200.034 40.9507C200.172 40.8823 200.309 40.8823 200.447 40.8823C200.653 40.8138 200.79 40.8138 200.928 40.7454C201.065 40.6769 201.134 40.5401 201.134 40.3347C201.134 40.1294 201.203 39.7187 201.203 39.2396V32.6007C201.203 32.1901 201.203 31.8479 201.134 31.6426C201.065 31.4372 200.997 31.3003 200.859 31.2319C200.722 31.1635 200.584 31.095 200.309 30.9581C200.034 30.8897 199.828 30.7528 199.622 30.6844V30.2053H203.127C204.089 30.2053 204.914 30.2737 205.601 30.3421C206.289 30.4106 206.976 30.6844 207.526 31.1635C208.076 31.6425 208.351 32.2585 208.351 33.1483C208.351 33.6958 208.213 34.1749 207.938 34.5856C207.663 34.9962 207.32 35.27 206.907 35.5438C206.495 35.7491 206.014 35.9544 205.533 36.0229C205.601 36.0913 205.876 36.5704 206.426 37.4602C206.839 38.1446 207.182 38.6921 207.457 39.1028C207.732 39.5134 208.007 39.9241 208.282 40.3347C208.419 40.5401 208.625 40.6769 208.763 40.8138C208.9 40.9507 209.038 41.0191 209.244 41.0876C209.45 41.156 209.656 41.2245 210 41.2245V41.7036C209.519 41.8405 209.038 41.9089 208.694 41.9089C208.144 41.9089 207.663 41.7036 207.251 41.3614C206.838 41.0192 206.426 40.5401 206.082 39.9925C205.739 39.445 205.395 38.829 204.983 38.0077C204.708 37.5286 204.57 37.1864 204.433 36.9126C204.227 36.6388 204.089 36.502 204.021 36.4335ZM203.196 35.4753C203.814 35.4753 204.433 35.4069 204.845 35.3384C205.258 35.27 205.739 35.0647 206.082 34.7225C206.426 34.3802 206.564 33.9011 206.564 33.2167C206.564 32.4639 206.357 31.9848 206.014 31.6426C205.67 31.3003 205.258 31.095 204.708 31.0266C204.158 30.9581 203.608 30.8897 202.921 30.8897H202.784V35.4753H203.196Z" fill="#A4E9D7"/>
<defs>
<linearGradient id="paint0_linear_62_8832" x1="-0.61276" y1="12.5505" x2="39.3796" y2="80.4172" gradientUnits="userSpaceOnUse">
<stop stop-color="#7BC9CD"/>
<stop offset="1" stop-color="#4997B0"/>
</linearGradient>
<linearGradient id="paint1_linear_62_8832" x1="64.8379" y1="40.8342" x2="80.3625" y2="67.1793" gradientUnits="userSpaceOnUse">
<stop stop-color="#7BC9CD"/>
<stop offset="1" stop-color="#4997B0"/>
</linearGradient>
<linearGradient id="paint2_linear_62_8832" x1="10.7565" y1="35.3099" x2="95.9118" y2="35.3099" gradientUnits="userSpaceOnUse">
<stop stop-color="#A9EDD7"/>
<stop offset="0.0586044" stop-color="#A4E9D6"/>
<stop offset="1" stop-color="#50A7C2"/>
</linearGradient>
<linearGradient id="paint3_linear_62_8832" x1="89.568" y1="14.8358" x2="74.9014" y2="14.8358" gradientUnits="userSpaceOnUse">
<stop stop-color="#ACF0D8"/>
<stop offset="0.3428" stop-color="#A7ECD7"/>
<stop offset="0.756" stop-color="#98E0D3"/>
<stop offset="1" stop-color="#8CD6D0"/>
</linearGradient>
</defs>
</svg>
