<svg width="41" height="30" viewBox="0 0 41 30" fill="none" xmlns="http://www.w3.org/2000/svg">
<path d="M18.7164 30.0555L12.7967 19.8218H7.82416L4.60386 2.7262H0.981018L5.17215 23.1701L11.9679 23.3116L18.7164 30.0555Z" fill="url(#paint0_linear_54_5260)"/>
<path d="M20.5633 20.2227L20.8948 23.2409H40.3113L39.601 20.2227H20.5633Z" fill="url(#paint1_linear_54_5260)"/>
<path d="M40.3113 18.737L38.7722 12.3704L33.1604 0.108765H5.05376L8.72395 18.737H13.5781L20.066 29.3481L19.2846 18.737H40.3113ZM25.3464 8.19674C26.0568 8.19674 26.6487 8.76266 26.6487 9.49364C26.6487 10.2246 26.0804 10.7906 25.3464 10.7906C24.6124 10.7906 24.0441 10.2246 24.0441 9.49364C24.0441 8.76266 24.636 8.19674 25.3464 8.19674ZM12.6546 10.767C11.9443 10.767 11.3523 10.201 11.3523 9.47007C11.3523 8.73908 11.9206 8.17316 12.6546 8.17316C13.365 8.17316 13.9569 8.73908 13.9569 9.47007C13.9569 10.201 13.365 10.767 12.6546 10.767ZM17.7455 9.47007C17.7455 8.76266 18.3138 8.17316 19.0479 8.17316C19.7582 8.17316 20.3502 8.73908 20.3502 9.47007C20.3502 10.201 19.7819 10.767 19.0479 10.767C18.3375 10.767 17.7455 10.1775 17.7455 9.47007Z" fill="url(#paint2_linear_54_5260)"/>
<path d="M38.7722 12.394L33.1604 0.108765L30.9819 12.3704L38.7722 12.394Z" fill="url(#paint3_linear_54_5260)"/>
<defs>
<linearGradient id="paint0_linear_54_5260" x1="0.346428" y1="5.3052" x2="16.9048" y2="33.4047" gradientUnits="userSpaceOnUse">
<stop stop-color="#7BC9CD"/>
<stop offset="1" stop-color="#4997B0"/>
</linearGradient>
<linearGradient id="paint1_linear_54_5260" x1="27.4455" y1="17.0158" x2="33.8733" y2="27.9237" gradientUnits="userSpaceOnUse">
<stop stop-color="#7BC9CD"/>
<stop offset="1" stop-color="#4997B0"/>
</linearGradient>
<linearGradient id="paint2_linear_54_5260" x1="5.05376" y1="14.7284" x2="40.3113" y2="14.7284" gradientUnits="userSpaceOnUse">
<stop stop-color="#A9EDD7"/>
<stop offset="0.0586044" stop-color="#A4E9D6"/>
<stop offset="1" stop-color="#50A7C2"/>
</linearGradient>
<linearGradient id="paint3_linear_54_5260" x1="37.6847" y1="6.25138" x2="31.6122" y2="6.25138" gradientUnits="userSpaceOnUse">
<stop stop-color="#ACF0D8"/>
<stop offset="0.3428" stop-color="#A7ECD7"/>
<stop offset="0.756" stop-color="#98E0D3"/>
<stop offset="1" stop-color="#8CD6D0"/>
</linearGradient>
</defs>
</svg>
